<?xml version="1.0" encoding="UTF-8" standalone="no"?>
<!-- Created with Inkscape (http://www.inkscape.org/) -->
<svg
   xmlns:dc="http://purl.org/dc/elements/1.1/"
   xmlns:cc="http://web.resource.org/cc/"
   xmlns:rdf="http://www.w3.org/1999/02/22-rdf-syntax-ns#"
   xmlns:svg="http://www.w3.org/2000/svg"
   xmlns="http://www.w3.org/2000/svg"
   xmlns:sodipodi="http://sodipodi.sourceforge.net/DTD/sodipodi-0.dtd"
   xmlns:inkscape="http://www.inkscape.org/namespaces/inkscape"
   width="113.63385"
   height="60.638306"
   id="svg3869"
   sodipodi:version="0.32"
   inkscape:version="0.45pre1"
   sodipodi:modified="true"
   version="1.0">
  <defs
     id="defs3871" />
  <sodipodi:namedview
     id="base"
     pagecolor="#ffffff"
     bordercolor="#666666"
     borderopacity="1.0"
     gridtolerance="10000"
     guidetolerance="10"
     objecttolerance="10"
     inkscape:pageopacity="0.0"
     inkscape:pageshadow="2"
     inkscape:zoom="1"
     inkscape:cx="161.86615"
     inkscape:cy="73.861694"
     inkscape:document-units="px"
     inkscape:current-layer="layer1"
     inkscape:window-width="744"
     inkscape:window-height="573"
     inkscape:window-x="66"
     inkscape:window-y="87" />
  <metadata
     id="metadata3874">
    <rdf:RDF>
      <cc:Work
         rdf:about="">
        <dc:format>image/svg+xml</dc:format>
        <dc:type
           rdf:resource="http://purl.org/dc/dcmitype/StillImage" />
      </cc:Work>
    </rdf:RDF>
  </metadata>
  <g
     inkscape:label="Layer 1"
     inkscape:groupmode="layer"
     id="layer1"
     transform="translate(-406.04022,-467.75732)">
    <path
       style="fill:#000000;display:inline"
       d="M 494.30844,528.2964 C 480.8725,526.65094 472.01597,513.79399 475.35093,500.77598 C 476.91011,494.6897 480.3786,490.29102 486.61006,486.49736 C 486.84987,486.35137 486.85055,486.29073 486.61846,485.73737 C 486.47975,485.40663 486.31488,485.16595 486.25208,485.20249 C 486.18928,485.23906 479.56973,487.426 471.54196,490.0624 C 463.51422,492.6988 455.71447,495.27761 454.20921,495.7931 C 452.70395,496.3086 451.27159,496.73038 451.0262,496.73038 C 450.50745,496.73038 450.12523,496.35376 449.01344,494.74724 C 446.34957,490.89793 443.00706,487.57813 439.85399,485.65005 C 437.65838,484.30744 436.01084,483.62056 433.06901,482.82126 C 431.55012,482.40858 425.90496,482.4093 424.10521,482.8224 C 421.18406,483.4929 418.42039,484.51436 415.94221,485.83946 L 414.60123,486.55651 L 413.99874,485.44616 C 413.66737,484.83547 413.39625,484.30848 413.39625,484.27506 C 413.39625,484.14468 416.2583,482.72115 417.83849,482.06559 C 421.32382,480.61964 424.27049,479.94194 427.67487,479.80334 C 434.70598,479.51706 441.00533,482.15367 446.55899,487.70733 C 448.14144,489.2898 450.27812,491.85778 451.11636,493.18466 C 451.3559,493.56384 451.59154,493.87421 451.63998,493.87436 C 451.68843,493.87453 452.20224,493.71402 452.78177,493.51768 L 453.8355,493.16072 L 450.99965,487.68725 L 448.16379,482.21378 L 445.16248,482.17076 C 441.21042,482.11415 441.41875,482.2965 441.34609,478.83013 C 441.31568,477.3794 441.36383,476.10942 441.46169,475.78131 C 441.7065,474.96042 443.19881,473.40863 443.74342,473.40863 C 443.97951,473.40863 446.68971,474.41084 449.76609,475.63577 C 453.8505,477.26206 455.4426,477.96804 455.66745,478.25258 C 456.11062,478.81341 456.70806,480.35855 456.70806,480.94386 C 456.70806,481.26208 456.57426,481.57024 456.34087,481.78948 C 455.99715,482.1124 455.81972,482.13445 453.56448,482.13445 C 452.23941,482.13445 451.15527,482.1726 451.15527,482.21921 C 451.15527,482.28623 456.19549,492.09328 456.31035,492.24973 C 456.35545,492.31117 485.00896,482.90362 485.14372,482.78313 C 485.25637,482.6824 480.1897,471.19864 480.02982,471.19232 C 479.98618,471.19059 479.23656,471.75957 478.36398,472.45671 C 476.96155,473.57719 476.70178,473.72435 476.12517,473.72509 C 475.57287,473.72581 466.89124,471.74583 466.72715,471.58174 C 466.61706,471.47165 467.23987,469.12504 467.37918,469.12504 C 467.45734,469.12504 469.31252,469.5534 471.50179,470.07695 C 473.69106,470.6005 475.58691,471.02886 475.71476,471.02886 C 475.84263,471.02886 476.79864,470.34544 477.83923,469.51016 C 478.87982,468.67487 479.92918,467.92244 480.17114,467.8381 C 480.86182,467.59733 481.39038,467.89178 481.82951,468.76195 C 482.16548,469.4277 486.72541,479.50993 487.49788,481.29496 L 487.78682,481.96264 L 488.9455,481.56802 C 491.80736,480.59331 495.6365,480.1461 498.95694,480.3988 C 503.66826,480.75733 507.78893,482.15343 511.60647,484.68449 C 514.34224,486.49833 517.42584,489.88691 519.2589,493.09379 L 519.67407,493.82012 L 518.54059,494.46794 L 517.40709,495.11576 L 516.68238,493.90026 C 513.91019,489.25075 509.68748,485.83359 504.62078,484.13961 C 501.39516,483.06116 496.90917,482.65589 493.67383,483.15064 C 492.03365,483.40147 489.27992,484.11477 489.01858,484.3565 C 488.91507,484.45224 489.07826,484.97392 489.3026,485.26445 C 489.31801,485.2844 490.15895,485.09153 491.17136,484.83585 C 497.86606,483.14509 504.95159,484.5719 510.28731,488.68522 C 514.72906,492.10939 517.82103,497.38077 518.67424,502.98371 C 520.12085,512.48365 515.11363,521.97414 506.44526,526.162 C 504.33305,527.18246 503.25925,527.55087 501.13607,527.98355 C 499.26869,528.36409 496.06124,528.51106 494.30844,528.2964 z M 500.1174,525.51798 C 507.98923,524.14525 514.27911,518.02221 515.9018,510.15229 C 516.28203,508.30815 516.35605,504.97858 516.05732,503.15575 C 514.91849,496.2066 509.85255,490.11473 503.33774,487.86029 C 501.2903,487.15178 499.81843,486.87925 497.51564,486.7823 C 495.26729,486.68765 493.85101,486.83888 491.71732,487.40144 C 490.73501,487.66041 490.48955,487.78282 490.54549,487.98578 C 490.5844,488.12699 491.95854,491.22217 493.59913,494.86395 L 496.58203,501.48538 L 497.15073,501.58033 C 498.57736,501.81853 499.63528,502.49601 500.32614,503.61382 C 501.81387,506.02103 500.18722,509.40975 497.33896,509.83688 C 495.1553,510.16434 492.94814,508.47104 492.6402,506.23203 C 492.49614,505.18463 492.90024,503.86579 493.60383,503.08699 L 494.15577,502.47606 L 491.13461,495.76007 C 489.47298,492.06627 488.06161,488.99366 487.99826,488.93202 C 487.83377,488.77203 486.05066,489.88327 484.52318,491.0977 C 480.91593,493.96567 478.3708,498.26119 477.57785,502.81957 C 477.26355,504.62631 477.26378,507.87491 477.57833,509.67865 C 478.79358,516.6474 483.80627,522.47134 490.58012,524.78465 C 491.36545,525.05283 492.57914,525.37503 493.2772,525.50063 C 495.01411,525.81315 498.37592,525.82167 500.1174,525.51798 z M 497.81097,506.73761 C 498.74051,505.80808 498.23001,504.41585 496.89392,504.23665 C 496.30323,504.15741 496.17265,504.20218 495.74395,504.63087 C 495.0834,505.29144 495.07588,506.08939 495.72409,506.73761 C 496.36414,507.37766 497.17092,507.37766 497.81097,506.73761 z M 452.23414,479.51146 C 452.0316,479.30891 444.27444,476.28198 444.15194,476.35769 C 444.07715,476.40391 444.01596,477.15145 444.01596,478.01888 L 444.01596,479.59603 L 448.16734,479.59603 C 450.45059,479.59603 452.28065,479.55798 452.23414,479.51146 z M 424.34318,527.66513 C 416.36864,526.25803 409.69421,520.53279 407.14507,512.91282 C 406.29417,510.36926 406.03001,508.64282 406.04052,505.69417 C 406.05429,501.83726 406.7046,499.13359 408.43864,495.72407 C 412.22419,488.28079 419.64295,483.72675 428.0049,483.71322 C 430.54159,483.70911 431.91276,483.89158 434.17958,484.53487 C 437.61216,485.50901 440.84355,487.38844 443.47425,489.9408 C 446.49889,492.87536 448.55115,496.39376 449.57325,500.39696 C 449.74529,501.07078 449.88606,501.80519 449.88606,502.02894 C 449.88606,502.32397 449.98416,502.45535 450.24302,502.50701 C 450.43936,502.54619 453.02735,502.65276 455.99413,502.74382 C 459.91792,502.86426 461.64423,502.97674 462.32726,503.1565 C 465.01944,503.86502 467.15525,505.90241 468.049,508.61454 C 468.44157,509.80581 468.44705,512.07794 468.06013,513.22104 C 467.17105,515.84764 465.17764,517.7745 462.51048,518.58543 C 462.02855,518.73195 461.13264,518.82706 460.27772,518.82247 C 458.97105,518.81544 458.38527,518.68553 453.37639,517.29189 C 450.36598,516.4543 447.88012,515.83726 447.85227,515.92069 C 447.82442,516.00414 447.40797,516.69942 446.92684,517.46578 C 442.71969,524.16699 435.76247,528.01012 427.91284,527.96903 C 426.81088,527.96326 425.3074,527.83526 424.34318,527.66513 z M 432.0123,524.94851 C 437.24915,523.91764 441.97673,520.58767 444.78815,515.94958 C 445.07158,515.48197 445.28153,515.08088 445.25466,515.05827 C 445.22782,515.03567 441.13643,513.895 436.16272,512.52345 C 431.189,511.15189 426.77838,509.88338 426.36133,509.70456 C 425.43993,509.30944 424.31612,508.1075 424.05583,507.23878 C 423.4067,505.07211 424.32,503.05726 426.33641,502.20766 C 427.35606,501.77804 428.58636,501.76769 438.13692,502.10826 C 443.14934,502.28702 447.27239,502.41129 447.29925,502.38444 C 447.37764,502.30604 446.73561,499.90395 446.38168,498.95149 C 445.92944,497.73449 444.77465,495.59496 443.94954,494.44537 C 441.33998,490.80956 437.46711,488.11625 433.21051,486.97711 C 422.05751,483.99237 410.86048,491.15918 408.87331,502.55447 C 408.56651,504.31381 408.57207,507.37805 408.88533,509.18451 C 409.92377,515.17259 413.7904,520.41635 419.20681,523.18204 C 423.29566,525.26986 427.4609,525.84444 432.0123,524.94851 z M 462.32656,515.91865 C 465.00704,514.91576 466.44237,511.72766 465.42618,509.03387 C 464.99516,507.89131 463.93226,506.70164 462.81928,506.1161 C 462.12996,505.75342 461.83091,505.69702 460.59502,505.6965 C 459.32705,505.69597 459.06301,505.74853 458.23704,506.16582 C 455.15938,507.72075 454.23155,511.92934 456.41865,514.41403 C 457.85856,516.04985 460.30836,516.67377 462.32656,515.91865 z M 453.37639,514.45417 C 453.37639,514.42933 453.22225,513.98312 453.03386,513.4626 C 452.81335,512.85338 452.66526,511.99237 452.61818,511.046 C 452.52358,509.1442 452.90799,507.85794 454.00733,506.39784 C 454.43011,505.83631 454.76453,505.36591 454.75048,505.3525 C 454.65751,505.26387 431.91707,504.4928 431.83439,504.57547 C 431.79797,504.61189 431.85399,504.90169 431.95887,505.21949 C 432.18934,505.91781 432.0609,506.93335 431.63691,507.76498 C 431.46736,508.09751 431.3667,508.40766 431.41322,508.45417 C 431.48786,508.52881 442.76514,511.66885 447.42696,512.91302 C 448.3868,513.16919 450.02885,513.62493 451.07595,513.92579 C 452.87865,514.44374 453.37639,514.55806 453.37639,514.45417 z M 428.62995,507.27905 C 429.20529,506.98153 429.42003,506.59475 429.42003,505.85604 C 429.42003,505.01957 428.85361,504.5043 427.93416,504.5043 C 427.3394,504.5043 427.16189,504.58181 426.81638,504.99242 C 426.23424,505.68427 426.2747,506.30888 426.94507,506.97925 C 427.53788,507.57206 427.92882,507.64162 428.62995,507.27905 z "
       id="path3326" />
  </g>
</svg>
