<?xml version="1.0" encoding="utf-8"?>
<!-- Generator: Adobe Illustrator 17.1.0, SVG Export Plug-In . SVG Version: 6.00 Build 0)  -->
<!DOCTYPE svg PUBLIC "-//W3C//DTD SVG 1.1//EN" "http://www.w3.org/Graphics/SVG/1.1/DTD/svg11.dtd">
<svg version="1.1" id="Layer_1" xmlns="http://www.w3.org/2000/svg" xmlns:xlink="http://www.w3.org/1999/xlink" x="0px" y="0px"
	 viewBox="0 0 215 80" enable-background="new 0 0 215 80" xml:space="preserve">
<g>
	<path fill="#010101" d="M77.3,47.8c0,2.7-1,5.1-2.9,7.4c-2.7,3.3-6.3,5.6-10.9,7.1c-3.4,1.1-6.6,1.6-9.8,1.6
		c-1.2,0-2.3-0.1-3.4-0.2c-7.3-0.9-13.5-2.5-18.6-4.8c-4.6,3.4-9.5,5.1-14.6,5.1c-6.1,0-9.8-1.7-11.3-5c-0.3-0.8-0.5-1.7-0.5-2.8
		s0.5-2.2,1.6-3.4c1.7-1.9,4-2.8,7-2.8c2,0,3.7,0.3,5.3,0.8c1.6,0.6,3.5,1.5,5.9,2.7c2.3,1.3,4.1,2.2,5.2,2.7c2.1-2,4.2-4.8,6.4-8.4
		c2.2-3.6,4.1-7.1,5.8-10.5s3.8-7.2,6.3-11.4c2.6-4.2,5.2-7.8,7.8-10.7l4-4.5c-3.7-0.7-7.7-1-12.2-1c-4.4,0-9.3,0.6-14.6,1.8
		C26.5,13,20.9,16.2,17,20.9c-2.4,2.8-3.6,5.6-3.6,8.1c0,3.4,1.7,5.6,5,6.6c1.2,0.3,2.2,0.5,3.1,0.5s1.9-0.2,3.1-0.5s2.3-1,3.4-2.1
		s1.9-2.1,2.4-3c0.5-1,0.7-1.7,0.7-2.2s0.2-0.7,0.7-0.7c0.5,0,0.7,0.4,0.8,1v0.1c-0.5,3.4-2.3,6-5.5,7.8c-1.9,1-3.8,1.5-5.7,1.5
		l-3.6-0.6c-4.9-1.7-7.4-4.9-7.4-9.7c0-3.2,1.4-6.4,4.3-9.5c4.6-5.1,11.3-8.3,20.2-9.6c4.3-0.6,8.8-0.9,13.4-0.9s9.4,0.5,14.2,1.5
		c1.3-1.1,2.4-1.9,3.4-2.2c1-0.4,1.6-0.6,1.7-0.6c0.2,0,0.3,0,0.3,0.1c0.3,0,0.3,0.2,0.2,0.5c-0.2,0.3-0.7,0.7-1.5,1.3
		c-0.9,0.6-1.4,1.1-1.6,1.5c6.3,1.6,10.9,4,13.7,7c1.5,1.7,2.2,3.4,2.2,5.1s-0.5,3.5-1.5,5.3c-1.4,2.3-3.5,4.1-6.6,5.3
		c-3,1.2-6.1,1.9-9.2,2c3,0.9,5.8,2.2,8.3,3.9C75.5,40.6,77.3,43.8,77.3,47.8z M28.8,57.5c-5.5-2.6-8.9-4.2-10.4-4.7
		C17,52.3,15.5,52,14.1,52s-2.6,0.5-3.4,1.5c-0.8,1-1.3,1.9-1.3,2.7s0.2,1.6,0.6,2.3c1,2.1,3.2,3.1,6.4,3.1
		C20.9,61.8,25,60.4,28.8,57.5z M52.8,61.9c5.2,0,9.7-1.5,13.3-4.5c4-3.2,6-6.6,6-10.3c0-3.8-2-6.7-6.1-8.7
		c-1.5-0.7-3.3-1.4-5.5-2.1s-3.9-1.2-5.2-1.7s-2.1-0.9-2.3-1.3c0-0.9,0.7-1.4,2-1.4c0.9,0,2.2,0.1,4.1,0.2c1.8,0.1,3.4,0.2,4.7,0.2
		s2.9-0.5,4.7-1.4s3.4-2.1,4.7-3.5c2.1-2.3,3.2-4.5,3.2-6.6c0-4.4-4.1-7.5-12.3-9.4C61.6,14.8,57.2,22,50.8,33S39.4,51.4,35.9,55.1
		l-2.7,2.5c5.3,2.2,10.9,3.6,17,4.2C51.2,61.9,52,61.9,52.8,61.9z"/>
	<path fill="#010101" d="M84.2,59.7c0.9,0,1.8-0.4,2.8-1.3c1.7-1.7,3.9-5.2,6.6-10.6c0.3-0.7,0.7-0.9,1-0.6c0.1,0.1,0.1,0.2,0.1,0.5
		s-0.2,0.7-0.6,1.5s-0.7,1.6-1,2.2c-0.3,0.7-0.9,1.7-1.8,3.2S89.7,57.2,89,58c-1.9,2.2-3.7,3.3-5.4,3.3c-1.7,0-2.9-0.5-3.7-1.5
		c-0.7-1-1.1-2.2-1.1-3.4c0-1.3,0.3-2.6,0.9-4.1l4.5-11.4c0.1-0.3,0.1-0.7,0.1-1.1c0-0.5-0.3-1.1-0.8-1.8l3.9-0.1
		c1.1,0,1.7,0.2,1.9,0.6s0,1-0.4,1.9l-5.6,13.1c-0.8,1.7-1.2,3.2-1.2,4.4C82.1,59,82.8,59.7,84.2,59.7z M91.1,34
		c-0.7,0.6-1.4,0.8-2.2,0.8S87.5,34.5,87,34c-0.5-0.6-0.7-1.2-0.6-2s0.5-1.5,1.2-2c0.7-0.6,1.4-0.8,2.2-0.8s1.4,0.3,1.9,0.8
		c0.5,0.6,0.7,1.2,0.5,2C92.1,32.8,91.7,33.4,91.1,34z"/>
	<path fill="#010101" d="M111.7,42.3c0-1.3-0.6-1.9-1.9-1.9c-1.9,0-4,1.1-6.5,3.2s-4.5,4.4-6.1,6.7c-0.7,1.4-1.3,3.1-1.7,5.1
		c-0.4,2.1-0.7,3.5-0.7,4.3s0.1,1.3,0.4,1.5h-4.4c-0.7,0-0.9-0.6-0.5-1.9c0.4-1.2,0.8-2.6,1.4-4s1.4-3.1,2.3-5s1.6-3.3,2-4.3
		c-3.8,7.2-6.3,11.4-7.4,12.5c-0.5,0.4-0.7,0.3-0.7-0.4c0-0.1,0-0.3,0.1-0.5c1.6-2.1,4.9-8,9.8-17.5s8.3-15.7,10.3-18.7
		c1.6-2.3,3.1-3.4,4.6-3.4h0.1h0.3c0,0,0.5,0.1,1.2,0.2c0.8,0.1,1.3,0.2,1.7,0.1c-1.7,1.3-4.1,4.3-7.1,9s-5.4,8.8-7.2,12.3
		s-3,6.2-3.6,8c4.2-5.3,8-8.5,11.4-9.8c1.6-0.5,2.8-0.8,3.8-0.8c2.1,0,3.1,0.9,3.1,2.6c0,0.6-0.1,1.2-0.4,1.9c-0.7,1.8-2,3.4-4,4.8
		s-4.3,2.3-6.7,2.5c-0.6,1.3-0.8,2.5-0.8,3.6s0.1,2.1,0.4,3c0.6,2.2,1.6,3.6,3.1,4.1c0.3,0.1,0.7,0.1,1,0.1c1.3,0,2.8-0.8,4.6-2.5
		c1.4-1.6,3.3-4.8,5.7-9.6c0.3-0.6,0.6-0.8,0.8-0.6c0.2,0.2,0.3,0.4,0.3,0.6s-0.4,1.1-1.1,2.7c-0.7,1.6-1.7,3.4-2.9,5.4
		c-2.7,4-5.6,6-8.8,6c-2,0-3.5-0.6-4.6-1.7c-1.5-1.6-2.3-3.7-2.3-6.2c0-1.3,0.3-2.6,1-4s1.5-2.1,2.5-2.2c0.1,0,0.3,0,0.4,0
		c1.6,0,3.2-0.6,4.8-1.9C111,44.5,111.7,43.3,111.7,42.3z"/>
	<path fill="#010101" d="M122.2,50.4c-0.7,1.6-1,3.4-1,5.3c0,1.3,0.3,2.3,0.9,3.1s1.4,1.2,2.5,1.2c4.2,0,8.1-4,11.5-12
		c0.3-0.7,0.7-1.1,1.2-1c0.2,0,0.3,0.2,0.3,0.4s-0.5,1.4-1.6,3.7c-1,2.3-2.1,4.1-3.2,5.5c-2.4,3.3-5.3,4.9-8.8,4.9
		c-1.9,0-3.5-0.6-4.8-1.8s-2-2.9-2-5s0.5-4.3,1.5-6.7s2.4-4.5,4.1-6.6s3.7-3.5,6-4.4c1.1-0.5,2.1-0.7,3.1-0.7s1.9,0.3,2.7,0.8
		c0.8,0.7,1.2,1.4,1.2,2.2c0,2.8-1.7,5.5-5,8c-1,0.8-2.5,1.5-4.3,2.1C124.6,50.1,123.1,50.4,122.2,50.4z M133.9,39.2
		c0-0.9-0.4-1.4-1.1-1.4c-1.3,0-3.3,1.6-6,4.8c-1.6,2-3,4.2-4.2,6.6c0.8,0,1.9-0.3,3.5-0.8c1.5-0.6,2.8-1.3,4-2.2
		C132.6,44,133.9,41.7,133.9,39.2z"/>
	<path fill="#010101" d="M208.1,4c1.1,0,1.6,0.3,1.6,0.9c0,0.5-0.7,1.4-2,2.8c-1.4,1.4-3.7,3.2-7.1,5.6c-3.4,2.4-8.1,5.7-14.1,9.8
		c-6,4.2-11,7.6-14.9,10.4c0,2.7-0.1,5.2-0.1,7.6c0,8.1,0.4,13.5,1.1,16.4c1.1,3.9,2.9,5.9,5.4,5.9c3.5,0,7.1-2.9,10.9-8.6
		c1.4-2.1,2.6-4.3,3.6-6.8c0.3-0.7,0.7-1,1.1-0.9c0.4,0.1,0.4,0.5,0.1,1.3c-4.2,8.8-8.8,14.7-13.9,17.5c-1.9,1.1-3.7,1.6-5.3,1.6
		s-3.1-0.6-4.4-1.9c-1.3-1.3-2.2-3.1-2.7-5.5c-0.3-1.3-0.4-4.2-0.4-9c0-4.7,0-9.7,0.1-14.8c-18.2,13.1-30.9,25.4-38.1,36.8
		c-1.4,2.4-2.9,3.6-4.3,3.6c-0.7,0-1-0.3-1-0.8c0-0.4,0.2-0.8,0.5-1.4l0.8-1.4c9.5-13.1,23.5-26.3,42-39.5c0-1.2,0-3.8,0-7.7
		s-0.2-7.5-0.7-10.7c-0.6-3.7-2.6-5.5-6.2-5.5c-4.4,0-9.1,2-14.1,5.9c-2.6,2-4.2,3.8-5,5.5c-0.1,0.1-0.4,0.1-0.8,0
		c-1-0.3-1.1-1-0.4-2.2c0.4-0.7,1.8-1.9,4.1-3.8s5.3-3.9,9-5.9s6.9-3,9.7-3c2.9,0,4.9,1.2,6.2,3.5c1.3,2.4,2.1,4.9,2.2,7.6
		c0.3,3.7,0.5,6.6,0.5,8.8s0,3.4,0,3.9s0,0.9,0,1.2c2.7-1.9,6.7-4.7,12-8.3s9.4-6.4,12.2-8.5s5.2-4.1,7.2-6.1
		c0.2-0.2,0.4-0.4,0.8-0.7c0.3-0.3,0.6-0.5,0.7-0.7c0.2-0.2,0.4-0.4,0.6-0.6c0.3-0.2,0.5-0.4,0.6-0.6c0.2-0.1,0.4-0.3,0.6-0.5
		c0.2-0.2,0.4-0.3,0.5-0.4s0.3-0.2,0.5-0.3C207.7,4.1,207.9,4,208.1,4z"/>
</g>
</svg>
